<svg xmlns="http://www.w3.org/2000/svg" xmlns:xlink="http://www.w3.org/1999/xlink" x="0" y="0" style="         width:701.6000366210938px;         height:106.80000305175781px;         background: #FFF;         fill: none; " viewBox="130.03 10.41 445.62 86.78">         <svg xmlns="http://www.w3.org/2000/svg"/>                  <svg xmlns="http://www.w3.org/2000/svg" class="role-diagram-draw-area" style="overflow: visible;"><g class="shapes-region" style="stroke: black; fill: none;"><g class="arrow-line"><path class="connection real" stroke-dasharray="" d="  M130.53,66.21 L509.52,66.21" style="stroke: rgb(0, 0, 0); stroke-width: 1; fill: none; fill-opacity: 1;"/><g stroke="none" fill="#000" transform="matrix(-1,1.2246467991473532e-16,-1.2246467991473532e-16,-1,512.523823806374,66.21418872312506)" style="stroke: none; fill: rgb(0, 0, 0); stroke-width: 1;"><path d=" M12.5,-6.01 L0,0 L12.5,6.01 Z"/></g></g><g class="composite-shape"><path class="real" d=" M403.36,67.59 C404.12,69.06 405.92,69.63 407.39,68.87 C408.85,68.1 409.42,66.3 408.66,64.83 C407.9,63.37 406.09,62.8 404.63,63.56 C403.16,64.33 402.59,66.13 403.36,67.59 Z" style="stroke-width: 1; stroke: rgb(0, 0, 0); fill: rgb(0, 0, 0); fill-opacity: 1;"/></g><g class="composite-shape"><path class="real" d=" M227.6,67.54 C228.36,69 230.17,69.57 231.63,68.81 C233.1,68.05 233.67,66.24 232.9,64.78 C232.14,63.32 230.34,62.75 228.87,63.51 C227.41,64.27 226.84,66.08 227.6,67.54 Z" style="stroke-width: 1; stroke: rgb(0, 0, 0); fill: rgb(0, 0, 0); fill-opacity: 1;"/></g><g/></g><g/><g/><g/></svg>         <svg xmlns="http://www.w3.org/2000/svg" xmlns:xlink="http://www.w3.org/1999/xlink" width="700" height="105.20000457763672" style="width:700px;height:105.20000457763672px;font-family:LatinModern-Math, LatinModern, Asana-Math, Asana;background:#FFF;"><g><g><g><g transform="matrix(1,0,0,1,524.5250854492188,71.89999389648438)"><path transform="matrix(0.017,0,0,-0.017,0,0)" d="M633 671C633 680 627 683 619 683C594 683 533 680 508 680L361 683C352 683 340 683 340 663C340 652 348 652 374 652C397 652 407 652 432 650C456 647 463 644 463 630C463 624 461 617 459 609L344 150C320 53 252 0 200 0C174 0 121 10 105 62C108 61 117 61 117 61C156 61 182 95 182 125C182 157 155 167 138 167C120 167 71 155 71 87C71 25 124 -22 203 -22C295 -22 399 44 424 143L541 610C549 643 551 652 606 652C622 652 633 652 633 671Z" stroke="rgb(0,0,0)" stroke-opacity="1" stroke-width="8" fill="rgb(0,0,0)" fill-opacity="1"/></g></g><g><g><g><g><g transform="matrix(1,0,0,1,534.4625854492188,74.91251220703126)"><path transform="matrix(0.0119,0,0,-0.0119,0,0)" d="M449 174L424 174C419 144 412 100 402 85C395 77 329 77 307 77L127 77L233 180C389 318 449 372 449 472C449 586 359 666 237 666C124 666 50 574 50 485C50 429 100 429 103 429C120 429 155 441 155 482C155 508 137 534 102 534C94 534 92 534 89 533C112 598 166 635 224 635C315 635 358 554 358 472C358 392 308 313 253 251L61 37C50 26 50 24 50 0L421 0Z" stroke="rgb(0,0,0)" stroke-opacity="1" stroke-width="8" fill="rgb(0,0,0)" fill-opacity="1"/></g></g></g></g></g><g><g transform="matrix(1,0,0,1,544.8250122070312,71.89999389648438)"><path transform="matrix(0.017,0,0,-0.017,0,0)" d="M445 730C445 741 436 750 425 750C416 750 409 745 406 737L57 -223C56 -225 56 -228 56 -230C56 -241 65 -250 76 -250C85 -250 92 -245 95 -237L444 723C445 725 445 728 445 730Z" stroke="rgb(0,0,0)" stroke-opacity="1" stroke-width="8" fill="rgb(0,0,0)" fill-opacity="1"/></g></g><g><g transform="matrix(1,0,0,1,556.7250366210938,71.89999389648438)"><path transform="matrix(0.017,0,0,-0.017,0,0)" d="M633 671C633 680 627 683 619 683C594 683 533 680 508 680L361 683C352 683 340 683 340 663C340 652 348 652 374 652C397 652 407 652 432 650C456 647 463 644 463 630C463 624 461 617 459 609L344 150C320 53 252 0 200 0C174 0 121 10 105 62C108 61 117 61 117 61C156 61 182 95 182 125C182 157 155 167 138 167C120 167 71 155 71 87C71 25 124 -22 203 -22C295 -22 399 44 424 143L541 610C549 643 551 652 606 652C622 652 633 652 633 671Z" stroke="rgb(0,0,0)" stroke-opacity="1" stroke-width="8" fill="rgb(0,0,0)" fill-opacity="1"/></g></g><g><g><g><g><g transform="matrix(1,0,0,1,566.6625366210938,74.91251220703126)"><path transform="matrix(0.0119,0,0,-0.0119,0,0)" d="M419 0L419 31L387 31C297 31 294 42 294 79L294 640C294 664 294 666 271 666C209 602 121 602 89 602L89 571C109 571 168 571 220 597L220 79C220 43 217 31 127 31L95 31L95 0C130 3 217 3 257 3C297 3 384 3 419 0Z" stroke="rgb(0,0,0)" stroke-opacity="1" stroke-width="8" fill="rgb(0,0,0)" fill-opacity="1"/></g></g></g></g></g></g></g><g><g><g><g transform="matrix(1,0,0,1,216.0875244140625,91.64999389648438)"><path transform="matrix(0.017,0,0,-0.017,0,0)" d="M460 320C460 400 455 480 420 554C374 650 292 666 250 666C190 666 117 640 76 547C44 478 39 400 39 320C39 245 43 155 84 79C127 -2 200 -22 249 -22C303 -22 379 -1 423 94C455 163 460 241 460 320ZM377 332C377 257 377 189 366 125C351 30 294 0 249 0C210 0 151 25 133 121C122 181 122 273 122 332C122 396 122 462 130 516C149 635 224 644 249 644C282 644 348 626 367 527C377 471 377 395 377 332ZM692 53C692 82 668 106 639 106C610 106 586 82 586 53C586 24 610 0 639 0C668 0 692 24 692 53ZM1227 174L1202 174C1197 144 1190 100 1180 85C1173 77 1107 77 1085 77L905 77L1011 180C1167 318 1227 372 1227 472C1227 586 1137 666 1015 666C902 666 828 574 828 485C828 429 878 429 881 429C898 429 933 441 933 482C933 508 915 534 880 534C872 534 870 534 867 533C890 598 944 635 1002 635C1093 635 1136 554 1136 472C1136 392 1086 313 1031 251L839 37C828 26 828 24 828 0L1199 0ZM1727 201C1727 320 1645 420 1537 420C1489 420 1446 404 1410 369L1410 564C1430 558 1463 551 1495 551C1618 551 1688 642 1688 655C1688 661 1685 666 1678 666C1678 666 1675 666 1670 663C1650 654 1601 634 1534 634C1494 634 1448 641 1401 662C1393 665 1389 665 1389 665C1379 665 1379 657 1379 641L1379 345C1379 327 1379 319 1393 319C1400 319 1402 322 1406 328C1417 344 1454 398 1535 398C1587 398 1612 352 1620 334C1636 297 1638 258 1638 208C1638 173 1638 113 1614 71C1590 32 1553 6 1507 6C1434 6 1377 59 1360 118C1363 117 1366 116 1377 116C1410 116 1427 141 1427 165C1427 189 1410 214 1377 214C1363 214 1328 207 1328 161C1328 75 1397 -22 1509 -22C1625 -22 1727 74 1727 201Z" stroke="rgb(0,0,0)" stroke-opacity="1" stroke-width="8" fill="rgb(0,0,0)" fill-opacity="1"/></g></g></g></g><g><g><g><g transform="matrix(1,0,0,1,395.0250244140625,92.8125)"><path transform="matrix(0.017,0,0,-0.017,0,0)" d="M460 320C460 400 455 480 420 554C374 650 292 666 250 666C190 666 117 640 76 547C44 478 39 400 39 320C39 245 43 155 84 79C127 -2 200 -22 249 -22C303 -22 379 -1 423 94C455 163 460 241 460 320ZM377 332C377 257 377 189 366 125C351 30 294 0 249 0C210 0 151 25 133 121C122 181 122 273 122 332C122 396 122 462 130 516C149 635 224 644 249 644C282 644 348 626 367 527C377 471 377 395 377 332ZM692 53C692 82 668 106 639 106C610 106 586 82 586 53C586 24 610 0 639 0C668 0 692 24 692 53ZM1263 644L1020 644C898 644 896 657 892 676L867 676L834 470L859 470C862 486 871 549 884 561C891 567 969 567 982 567L1189 567L1077 409C987 274 954 135 954 33C954 23 954 -22 1000 -22C1046 -22 1046 23 1046 33L1046 84C1046 139 1049 194 1057 248C1061 271 1075 357 1119 419L1254 609C1263 621 1263 623 1263 644ZM1727 201C1727 320 1645 420 1537 420C1489 420 1446 404 1410 369L1410 564C1430 558 1463 551 1495 551C1618 551 1688 642 1688 655C1688 661 1685 666 1678 666C1678 666 1675 666 1670 663C1650 654 1601 634 1534 634C1494 634 1448 641 1401 662C1393 665 1389 665 1389 665C1379 665 1379 657 1379 641L1379 345C1379 327 1379 319 1393 319C1400 319 1402 322 1406 328C1417 344 1454 398 1535 398C1587 398 1612 352 1620 334C1636 297 1638 258 1638 208C1638 173 1638 113 1614 71C1590 32 1553 6 1507 6C1434 6 1377 59 1360 118C1363 117 1366 116 1377 116C1410 116 1427 141 1427 165C1427 189 1410 214 1377 214C1363 214 1328 207 1328 161C1328 75 1397 -22 1509 -22C1625 -22 1727 74 1727 201Z" stroke="rgb(0,0,0)" stroke-opacity="1" stroke-width="8" fill="rgb(0,0,0)" fill-opacity="1"/></g></g></g></g><g><g><g><g transform="matrix(1,0,0,1,144.125,27.125)"><path transform="matrix(0.017,0,0,-0.017,0,0)" d="" stroke="rgb(0,0,0)" stroke-opacity="1" stroke-width="8" fill="rgb(0,0,0)" fill-opacity="1"/></g></g><g><g transform="matrix(1,0,0,1,161.0625,27.125)"><path transform="matrix(0.017,0,0,-0.017,0,0)" d="M332 -238C332 -235 330 -232 328 -230C224 -152 155 48 155 208L155 292C155 452 224 652 328 730C330 732 332 735 332 738C332 743 327 748 322 748C320 748 318 747 316 746C206 663 101 463 101 292L101 208C101 37 206 -163 316 -246C318 -247 320 -248 322 -248C327 -248 332 -243 332 -238Z" stroke="rgb(0,0,0)" stroke-opacity="1" stroke-width="8" fill="rgb(0,0,0)" fill-opacity="1"/></g></g><g><g transform="matrix(1,0,0,1,167.6875,27.125)"><path transform="matrix(0.017,0,0,-0.017,0,0)" d="M567 407C567 431 546 431 527 431L192 431C170 431 132 431 88 384C53 345 27 299 27 294C27 294 27 284 39 284C47 284 49 288 55 296C104 373 162 373 182 373L239 373C207 252 153 131 111 40C103 25 103 23 103 16C103 -3 119 -11 132 -11C162 -11 170 17 182 54C196 100 196 102 209 152L265 373L378 373C345 225 336 182 336 115C336 100 336 73 344 39C354 -5 365 -11 380 -11C400 -11 421 7 421 27C421 33 421 35 415 49C386 121 386 186 386 214C386 267 393 321 404 373L518 373C531 373 567 373 567 407Z" stroke="rgb(0,0,0)" stroke-opacity="1" stroke-width="8" fill="rgb(0,0,0)" fill-opacity="1"/></g></g><g><g transform="matrix(1,0,0,1,177.38751220703125,27.125)"><path transform="matrix(0.017,0,0,-0.017,0,0)" d="M203 1C203 67 178 106 139 106C106 106 86 81 86 53C86 26 106 0 139 0C151 0 164 4 174 13C177 15 179 16 179 16C179 16 181 15 181 1C181 -73 146 -133 113 -166C102 -177 102 -179 102 -182C102 -189 107 -193 112 -193C123 -193 203 -116 203 1Z" stroke="rgb(0,0,0)" stroke-opacity="1" stroke-width="8" fill="rgb(0,0,0)" fill-opacity="1"/></g></g><g><g transform="matrix(1,0,0,1,185.5250244140625,27.125)"><path transform="matrix(0.017,0,0,-0.017,0,0)" d="M567 407C567 431 546 431 527 431L192 431C170 431 132 431 88 384C53 345 27 299 27 294C27 294 27 284 39 284C47 284 49 288 55 296C104 373 162 373 182 373L239 373C207 252 153 131 111 40C103 25 103 23 103 16C103 -3 119 -11 132 -11C162 -11 170 17 182 54C196 100 196 102 209 152L265 373L378 373C345 225 336 182 336 115C336 100 336 73 344 39C354 -5 365 -11 380 -11C400 -11 421 7 421 27C421 33 421 35 415 49C386 121 386 186 386 214C386 267 393 321 404 373L518 373C531 373 567 373 567 407Z" stroke="rgb(0,0,0)" stroke-opacity="1" stroke-width="8" fill="rgb(0,0,0)" fill-opacity="1"/></g></g><g><g transform="matrix(1,0,0,1,195.22503662109375,27.125)"><path transform="matrix(0.017,0,0,-0.017,0,0)" d="M288 208L288 292C288 463 183 663 73 746C71 747 69 748 67 748C62 748 57 743 57 738C57 735 59 732 61 730C165 652 234 452 234 292L234 208C234 48 165 -152 61 -230C59 -232 57 -235 57 -238C57 -243 62 -248 67 -248C69 -248 71 -247 73 -246C183 -163 288 37 288 208Z" stroke="rgb(0,0,0)" stroke-opacity="1" stroke-width="8" fill="rgb(0,0,0)" fill-opacity="1"/></g></g></g><g><g><g transform="matrix(1,0,0,1,144.125,47.524993896484375)"><path transform="matrix(0.017,0,0,-0.017,0,0)" d="" stroke="rgb(0,0,0)" stroke-opacity="1" stroke-width="8" fill="rgb(0,0,0)" fill-opacity="1"/></g></g><g><g><g><g><g transform="matrix(1,0,0,1,149.7750244140625,47.125)"><path transform="matrix(0.015,0,0,-0.015,0,0)" d="M33 0C68 1 117 3 150 3C183 3 232 1 267 0L267 31C164 31 164 78 164 105L164 625C169 620 170 619 174 613L582 13C591 1 592 0 599 0C613 0 613 7 613 26L613 578C613 605 613 652 716 652L716 683C681 682 632 680 599 680C566 680 517 682 482 683L482 652C585 652 585 605 585 578L585 151L232 670C223 682 222 683 203 683L33 683L33 652L62 652C77 652 97 651 112 650C135 647 136 646 136 627L136 105C136 78 136 31 33 31ZM880 510L895 490C909 497 922 505 1030 566C1042 573 1065 582 1065 605C1065 621 1051 642 1030 642C1011 642 1005 631 880 510ZM778 220C778 86 883 -11 998 -11C1120 -11 1165 100 1165 119C1165 129 1157 131 1152 131C1143 131 1141 125 1139 117C1104 14 1014 14 1004 14C954 14 914 44 891 81C861 129 861 195 861 231L1140 231C1162 231 1165 231 1165 252C1165 351 1111 448 986 448C870 448 778 345 778 220ZM862 252C868 401 952 426 986 426C1089 426 1099 291 1099 252ZM1222 220C1222 86 1327 -11 1442 -11C1564 -11 1609 100 1609 119C1609 129 1601 131 1596 131C1587 131 1585 125 1583 117C1548 14 1458 14 1448 14C1398 14 1358 44 1335 81C1305 129 1305 195 1305 231L1584 231C1606 231 1609 231 1609 252C1609 351 1555 448 1430 448C1314 448 1222 345 1222 220ZM1306 252C1312 401 1396 426 1430 426C1533 426 1543 291 1543 252ZM1671 0C1704 1 1757 3 1782 3C1807 3 1856 1 1893 0L1893 31C1826 31 1815 31 1815 76L1815 694L1671 683L1671 652C1741 652 1749 645 1749 596L1749 76C1749 31 1738 31 1671 31ZM2280 0C2303 1 2346 3 2382 3C2413 3 2465 1 2497 0L2497 31C2447 31 2422 56 2422 82C2422 85 2423 95 2424 97L2470 228L2717 228L2770 75C2771 71 2773 65 2773 61C2773 31 2717 31 2690 31L2690 0C2726 3 2796 3 2834 3C2877 3 2923 2 2965 0L2965 31L2947 31C2887 31 2873 38 2862 71L2646 696C2641 709 2639 716 2623 716C2607 716 2604 710 2599 696L2392 98C2374 47 2334 32 2280 31ZM2481 259L2593 584L2706 259ZM3031 0C3066 3 3144 3 3183 3C3224 3 3315 3 3351 0L3351 31L3318 31C3223 31 3223 44 3223 79L3223 325L3309 325C3405 325 3415 293 3415 208L3440 208L3440 473L3415 473C3415 389 3405 356 3309 356L3223 356L3223 609C3223 642 3225 649 3272 649L3392 649C3542 649 3567 593 3583 455L3608 455L3580 680L3031 680L3031 649L3055 649C3132 649 3134 638 3134 602L3134 78C3134 42 3132 31 3055 31L3031 31ZM3687 0C3722 1 3771 3 3804 3C3837 3 3886 1 3921 0L3921 31C3818 31 3818 78 3818 105L3818 644L3819 644L4060 22C4065 9 4070 0 4080 0C4091 0 4094 8 4098 19L4344 652L4345 652L4345 78C4345 42 4343 31 4266 31L4242 31L4242 0C4279 3 4347 3 4386 3C4425 3 4492 3 4529 0L4529 31L4505 31C4428 31 4426 42 4426 78L4426 605C4426 641 4428 652 4505 652L4529 652L4529 683L4360 683C4334 683 4334 682 4327 664L4108 101L3891 661C3882 683 3879 683 3856 683L3687 683L3687 652L3711 652C3788 652 3790 641 3790 605L3790 105C3790 78 3790 31 3687 31Z" stroke="rgb(0,0,0)" stroke-opacity="1" stroke-width="8" fill="rgb(0,0,0)" fill-opacity="1"/></g></g></g></g></g></g></g><g><g><g><g transform="matrix(1,0,0,1,407.4625244140625,27.125)"><path transform="matrix(0.017,0,0,-0.017,0,0)" d="M332 -238C332 -235 330 -232 328 -230C224 -152 155 48 155 208L155 292C155 452 224 652 328 730C330 732 332 735 332 738C332 743 327 748 322 748C320 748 318 747 316 746C206 663 101 463 101 292L101 208C101 37 206 -163 316 -246C318 -247 320 -248 322 -248C327 -248 332 -243 332 -238Z" stroke="rgb(0,0,0)" stroke-opacity="1" stroke-width="8" fill="rgb(0,0,0)" fill-opacity="1"/></g></g><g><g transform="matrix(1,0,0,1,414.0875244140625,27.125)"><path transform="matrix(0.017,0,0,-0.017,0,0)" d="M567 407C567 431 546 431 527 431L192 431C170 431 132 431 88 384C53 345 27 299 27 294C27 294 27 284 39 284C47 284 49 288 55 296C104 373 162 373 182 373L239 373C207 252 153 131 111 40C103 25 103 23 103 16C103 -3 119 -11 132 -11C162 -11 170 17 182 54C196 100 196 102 209 152L265 373L378 373C345 225 336 182 336 115C336 100 336 73 344 39C354 -5 365 -11 380 -11C400 -11 421 7 421 27C421 33 421 35 415 49C386 121 386 186 386 214C386 267 393 321 404 373L518 373C531 373 567 373 567 407Z" stroke="rgb(0,0,0)" stroke-opacity="1" stroke-width="8" fill="rgb(0,0,0)" fill-opacity="1"/></g></g><g><g transform="matrix(1,0,0,1,423.78753662109375,27.125)"><path transform="matrix(0.017,0,0,-0.017,0,0)" d="M203 1C203 67 178 106 139 106C106 106 86 81 86 53C86 26 106 0 139 0C151 0 164 4 174 13C177 15 179 16 179 16C179 16 181 15 181 1C181 -73 146 -133 113 -166C102 -177 102 -179 102 -182C102 -189 107 -193 112 -193C123 -193 203 -116 203 1Z" stroke="rgb(0,0,0)" stroke-opacity="1" stroke-width="8" fill="rgb(0,0,0)" fill-opacity="1"/></g></g><g><g transform="matrix(1,0,0,1,431.925048828125,27.125)"><path transform="matrix(0.017,0,0,-0.017,0,0)" d="M460 320C460 400 455 480 420 554C374 650 292 666 250 666C190 666 117 640 76 547C44 478 39 400 39 320C39 245 43 155 84 79C127 -2 200 -22 249 -22C303 -22 379 -1 423 94C455 163 460 241 460 320ZM377 332C377 257 377 189 366 125C351 30 294 0 249 0C210 0 151 25 133 121C122 181 122 273 122 332C122 396 122 462 130 516C149 635 224 644 249 644C282 644 348 626 367 527C377 471 377 395 377 332Z" stroke="rgb(0,0,0)" stroke-opacity="1" stroke-width="8" fill="rgb(0,0,0)" fill-opacity="1"/></g></g><g><g transform="matrix(1,0,0,1,440.425048828125,27.125)"><path transform="matrix(0.017,0,0,-0.017,0,0)" d="M288 208L288 292C288 463 183 663 73 746C71 747 69 748 67 748C62 748 57 743 57 738C57 735 59 732 61 730C165 652 234 452 234 292L234 208C234 48 165 -152 61 -230C59 -232 57 -235 57 -238C57 -243 62 -248 67 -248C69 -248 71 -247 73 -246C183 -163 288 37 288 208Z" stroke="rgb(0,0,0)" stroke-opacity="1" stroke-width="8" fill="rgb(0,0,0)" fill-opacity="1"/></g></g><g><g transform="matrix(1,0,0,1,447.04998779296875,27.125)"><path transform="matrix(0.017,0,0,-0.017,0,0)" d="" stroke="rgb(0,0,0)" stroke-opacity="1" stroke-width="8" fill="rgb(0,0,0)" fill-opacity="1"/></g></g><g><g><g><g><g transform="matrix(1,0,0,1,452.70001220703125,26.724990844726562)"><path transform="matrix(0.015,0,0,-0.015,0,0)" d="M28 214C28 85 132 -11 249 -11C370 -11 471 87 471 214C471 342 371 448 250 448C125 448 28 339 28 214ZM111 222C111 261 111 315 135 359C162 405 209 426 249 426C293 426 336 404 362 361C388 318 388 260 388 222C388 186 388 132 366 88C344 43 300 14 250 14C207 14 163 35 136 81C111 125 111 186 111 222ZM528 0C567 1 614 3 642 3C682 3 729 3 769 0L769 31L748 31C674 31 672 42 672 78L672 232C672 331 714 420 790 420C797 420 799 420 801 419C798 418 778 406 778 380C778 352 799 337 821 337C839 337 864 349 864 381C864 413 833 442 790 442C717 442 681 375 667 332L667 442L528 431L528 400C598 400 606 393 606 344L606 76C606 31 595 31 528 31Z" stroke="rgb(0,0,0)" stroke-opacity="1" stroke-width="8" fill="rgb(0,0,0)" fill-opacity="1"/></g></g></g></g></g><g><g transform="matrix(1,0,0,1,466.07501220703125,27.125)"><path transform="matrix(0.017,0,0,-0.017,0,0)" d="" stroke="rgb(0,0,0)" stroke-opacity="1" stroke-width="8" fill="rgb(0,0,0)" fill-opacity="1"/></g></g><g><g transform="matrix(1,0,0,1,471.72503662109375,27.125)"><path transform="matrix(0.017,0,0,-0.017,0,0)" d="M332 -238C332 -235 330 -232 328 -230C224 -152 155 48 155 208L155 292C155 452 224 652 328 730C330 732 332 735 332 738C332 743 327 748 322 748C320 748 318 747 316 746C206 663 101 463 101 292L101 208C101 37 206 -163 316 -246C318 -247 320 -248 322 -248C327 -248 332 -243 332 -238Z" stroke="rgb(0,0,0)" stroke-opacity="1" stroke-width="8" fill="rgb(0,0,0)" fill-opacity="1"/></g></g><g><g transform="matrix(1,0,0,1,478.35003662109375,27.125)"><path transform="matrix(0.017,0,0,-0.017,0,0)" d="M460 320C460 400 455 480 420 554C374 650 292 666 250 666C190 666 117 640 76 547C44 478 39 400 39 320C39 245 43 155 84 79C127 -2 200 -22 249 -22C303 -22 379 -1 423 94C455 163 460 241 460 320ZM377 332C377 257 377 189 366 125C351 30 294 0 249 0C210 0 151 25 133 121C122 181 122 273 122 332C122 396 122 462 130 516C149 635 224 644 249 644C282 644 348 626 367 527C377 471 377 395 377 332Z" stroke="rgb(0,0,0)" stroke-opacity="1" stroke-width="8" fill="rgb(0,0,0)" fill-opacity="1"/></g></g><g><g transform="matrix(1,0,0,1,486.85003662109375,27.125)"><path transform="matrix(0.017,0,0,-0.017,0,0)" d="M203 1C203 67 178 106 139 106C106 106 86 81 86 53C86 26 106 0 139 0C151 0 164 4 174 13C177 15 179 16 179 16C179 16 181 15 181 1C181 -73 146 -133 113 -166C102 -177 102 -179 102 -182C102 -189 107 -193 112 -193C123 -193 203 -116 203 1Z" stroke="rgb(0,0,0)" stroke-opacity="1" stroke-width="8" fill="rgb(0,0,0)" fill-opacity="1"/></g></g><g><g transform="matrix(1,0,0,1,494.98748779296875,27.125)"><path transform="matrix(0.017,0,0,-0.017,0,0)" d="M567 407C567 431 546 431 527 431L192 431C170 431 132 431 88 384C53 345 27 299 27 294C27 294 27 284 39 284C47 284 49 288 55 296C104 373 162 373 182 373L239 373C207 252 153 131 111 40C103 25 103 23 103 16C103 -3 119 -11 132 -11C162 -11 170 17 182 54C196 100 196 102 209 152L265 373L378 373C345 225 336 182 336 115C336 100 336 73 344 39C354 -5 365 -11 380 -11C400 -11 421 7 421 27C421 33 421 35 415 49C386 121 386 186 386 214C386 267 393 321 404 373L518 373C531 373 567 373 567 407Z" stroke="rgb(0,0,0)" stroke-opacity="1" stroke-width="8" fill="rgb(0,0,0)" fill-opacity="1"/></g></g><g><g transform="matrix(1,0,0,1,504.68756103515625,27.125)"><path transform="matrix(0.017,0,0,-0.017,0,0)" d="M288 208L288 292C288 463 183 663 73 746C71 747 69 748 67 748C62 748 57 743 57 738C57 735 59 732 61 730C165 652 234 452 234 292L234 208C234 48 165 -152 61 -230C59 -232 57 -235 57 -238C57 -243 62 -248 67 -248C69 -248 71 -247 73 -246C183 -163 288 37 288 208Z" stroke="rgb(0,0,0)" stroke-opacity="1" stroke-width="8" fill="rgb(0,0,0)" fill-opacity="1"/></g></g></g><g><g><g><g><g><g transform="matrix(1,0,0,1,407.4625244140625,48.524993896484375)"><path transform="matrix(0.015,0,0,-0.015,0,0)" d="M722 2C722 -15 722 -22 733 -22C740 -22 741 -20 748 -9C748 -8 751 -5 784 48C815 14 879 -22 968 -22C1085 -22 1165 76 1165 186C1165 286 1099 368 1015 388L887 419C825 434 786 488 786 546C786 616 840 677 918 677C1085 677 1107 513 1113 468C1114 462 1114 456 1125 456C1138 456 1138 461 1138 480L1138 681C1138 698 1138 705 1127 705C1120 705 1119 704 1112 692L1077 635C1047 664 1006 705 917 705C806 705 722 617 722 511C722 428 775 355 853 328C864 324 915 312 985 295C1012 288 1042 281 1070 244C1091 218 1101 185 1101 152C1101 81 1051 9 967 9C938 9 862 14 809 63C751 117 748 181 747 217C746 227 738 227 735 227C722 227 722 220 722 202ZM1240 400L1325 400L1325 124C1325 1 1418 -11 1454 -11C1525 -11 1553 60 1553 124L1553 181L1528 181L1528 126C1528 52 1498 14 1461 14C1394 14 1394 105 1394 122L1394 400L1537 400L1537 431L1394 431L1394 615L1369 615C1368 533 1338 426 1240 422ZM1637 0C1676 1 1723 3 1751 3C1791 3 1838 3 1878 0L1878 31L1857 31C1783 31 1781 42 1781 78L1781 232C1781 331 1823 420 1899 420C1906 420 1908 420 1910 419C1907 418 1887 406 1887 380C1887 352 1908 337 1930 337C1948 337 1973 349 1973 381C1973 413 1942 442 1899 442C1826 442 1790 375 1776 332L1776 442L1637 431L1637 400C1707 400 1715 393 1715 344L1715 76C1715 31 1704 31 1637 31ZM2075 616C2075 589 2097 563 2128 563C2156 563 2181 584 2181 616C2181 648 2156 669 2128 669C2097 669 2075 642 2075 616ZM2033 0C2065 1 2119 3 2143 3C2178 3 2213 1 2247 0L2247 31C2181 31 2177 36 2177 75L2177 442L2037 431L2037 400C2102 400 2111 394 2111 345L2111 76C2111 31 2100 31 2033 31ZM2305 -163L2305 -194C2339 -193 2391 -191 2417 -191C2444 -191 2495 -193 2530 -194L2530 -163C2463 -163 2452 -163 2452 -118L2452 50L2452 59C2457 43 2499 -11 2575 -11C2694 -11 2798 87 2798 216C2798 343 2701 442 2589 442C2511 442 2469 398 2449 376L2449 442L2305 431L2305 400C2376 400 2383 394 2383 350L2383 -118C2383 -163 2372 -163 2305 -163ZM2452 114L2452 337C2481 388 2530 417 2581 417C2654 417 2715 329 2715 216C2715 95 2645 11 2571 11C2531 11 2493 31 2466 72C2452 93 2452 94 2452 114ZM2888 220C2888 86 2993 -11 3108 -11C3230 -11 3275 100 3275 119C3275 129 3267 131 3262 131C3253 131 3251 125 3249 117C3214 14 3124 14 3114 14C3064 14 3024 44 3001 81C2971 129 2971 195 2971 231L3250 231C3272 231 3275 231 3275 252C3275 351 3221 448 3096 448C2980 448 2888 345 2888 220ZM2972 252C2978 401 3062 426 3096 426C3199 426 3209 291 3209 252ZM3338 215C3338 88 3436 -11 3550 -11C3614 -11 3659 23 3684 55L3684 -11L3831 0L3831 31C3761 31 3753 38 3753 87L3753 694L3609 683L3609 652C3679 652 3687 645 3687 596L3687 380C3658 416 3615 442 3561 442C3443 442 3338 344 3338 215ZM3421 214C3421 251 3423 311 3452 356C3473 387 3511 420 3565 420C3600 420 3642 405 3673 360C3684 343 3684 341 3684 323L3684 118C3684 100 3684 98 3673 81C3643 33 3598 11 3555 11C3510 11 3474 37 3450 75C3424 116 3421 173 3421 214ZM4224 0C4247 1 4290 3 4326 3C4357 3 4409 1 4441 0L4441 31C4391 31 4366 56 4366 82C4366 85 4367 95 4368 97L4414 228L4661 228L4714 75C4715 71 4717 65 4717 61C4717 31 4661 31 4634 31L4634 0C4670 3 4740 3 4778 3C4821 3 4867 2 4909 0L4909 31L4891 31C4831 31 4817 38 4806 71L4590 696C4585 709 4583 716 4567 716C4551 716 4548 710 4543 696L4336 98C4318 47 4278 32 4224 31ZM4425 259L4537 584L4650 259ZM4975 0C5010 3 5088 3 5127 3C5168 3 5259 3 5295 0L5295 31L5262 31C5167 31 5167 44 5167 79L5167 325L5253 325C5349 325 5359 293 5359 208L5384 208L5384 473L5359 473C5359 389 5349 356 5253 356L5167 356L5167 609C5167 642 5169 649 5216 649L5336 649C5486 649 5511 593 5527 455L5552 455L5524 680L4975 680L4975 649L4999 649C5076 649 5078 638 5078 602L5078 78C5078 42 5076 31 4999 31L4975 31ZM5631 0C5666 1 5715 3 5748 3C5781 3 5830 1 5865 0L5865 31C5762 31 5762 78 5762 105L5762 644L5763 644L6004 22C6009 9 6014 0 6024 0C6035 0 6038 8 6042 19L6288 652L6289 652L6289 78C6289 42 6287 31 6210 31L6186 31L6186 0C6223 3 6291 3 6330 3C6369 3 6436 3 6473 0L6473 31L6449 31C6372 31 6370 42 6370 78L6370 605C6370 641 6372 652 6449 652L6473 652L6473 683L6304 683C6278 683 6278 682 6271 664L6052 101L5835 661C5826 683 5823 683 5800 683L5631 683L5631 652L5655 652C5732 652 5734 641 5734 605L5734 105C5734 78 5734 31 5631 31Z" stroke="rgb(0,0,0)" stroke-opacity="1" stroke-width="8" fill="rgb(0,0,0)" fill-opacity="1"/></g></g></g></g></g></g></g><g><g/><g/></g><g><g/><g><g><g><g><g><g transform="matrix(1,0,0,1,284.125,45.80000305175781)"><path transform="matrix(0.015,0,0,-0.015,0,0)" d="M56 2C56 -15 56 -22 67 -22C74 -22 75 -20 82 -9C82 -8 85 -5 118 48C149 14 213 -22 302 -22C419 -22 499 76 499 186C499 286 433 368 349 388L221 419C159 434 120 488 120 546C120 616 174 677 252 677C419 677 441 513 447 468C448 462 448 456 459 456C472 456 472 461 472 480L472 681C472 698 472 705 461 705C454 705 453 704 446 692L411 635C381 664 340 705 251 705C140 705 56 617 56 511C56 428 109 355 187 328C198 324 249 312 319 295C346 288 376 281 404 244C425 218 435 185 435 152C435 81 385 9 301 9C272 9 196 14 143 63C85 117 82 181 81 217C80 227 72 227 69 227C56 227 56 220 56 202ZM583 -163L583 -194C617 -193 669 -191 695 -191C722 -191 773 -193 808 -194L808 -163C741 -163 730 -163 730 -118L730 50L730 59C735 43 777 -11 853 -11C972 -11 1076 87 1076 216C1076 343 979 442 867 442C789 442 747 398 727 376L727 442L583 431L583 400C654 400 661 394 661 350L661 -118C661 -163 650 -163 583 -163ZM730 114L730 337C759 388 808 417 859 417C932 417 993 329 993 216C993 95 923 11 849 11C809 11 771 31 744 72C730 93 730 94 730 114ZM1185 616C1185 589 1207 563 1238 563C1266 563 1291 584 1291 616C1291 648 1266 669 1238 669C1207 669 1185 642 1185 616ZM1143 0C1175 1 1229 3 1253 3C1288 3 1323 1 1357 0L1357 31C1291 31 1287 36 1287 75L1287 442L1147 431L1147 400C1212 400 1221 394 1221 345L1221 76C1221 31 1210 31 1143 31ZM1419 0C1454 1 1505 3 1532 3C1558 3 1610 1 1644 0L1644 31C1577 31 1566 31 1566 76L1566 260C1566 364 1637 420 1701 420C1764 420 1775 366 1775 309L1775 76C1775 31 1764 31 1697 31L1697 0C1732 1 1783 3 1810 3C1836 3 1888 1 1922 0L1922 31C1870 31 1845 31 1844 61L1844 252C1844 338 1844 369 1813 405C1799 422 1766 442 1708 442C1635 442 1588 399 1560 337L1560 442L1419 431L1419 400C1489 400 1497 393 1497 344L1497 76C1497 31 1486 31 1419 31ZM2308 0L2829 0L2857 258L2832 258C2821 156 2807 31 2631 31L2549 31C2502 31 2500 38 2500 71L2500 604C2500 638 2500 652 2595 652L2628 652L2628 683C2592 680 2501 680 2460 680C2421 680 2343 680 2308 683L2308 652L2332 652C2409 652 2411 641 2411 605L2411 78C2411 42 2409 31 2332 31L2308 31ZM2975 616C2975 589 2997 563 3028 563C3056 563 3081 584 3081 616C3081 648 3056 669 3028 669C2997 669 2975 642 2975 616ZM2933 0C2965 1 3019 3 3043 3C3078 3 3113 1 3147 0L3147 31C3081 31 3077 36 3077 75L3077 442L2937 431L2937 400C3002 400 3011 394 3011 345L3011 76C3011 31 3000 31 2933 31ZM3211 215C3211 90 3308 -11 3424 -11C3494 -11 3535 32 3557 61L3557 -118C3557 -163 3546 -163 3479 -163L3479 -194C3513 -193 3565 -191 3591 -191C3618 -191 3669 -193 3704 -194L3704 -163C3637 -163 3626 -163 3626 -118L3626 442L3604 442L3566 351C3553 379 3512 442 3432 442C3316 442 3211 345 3211 215ZM3294 215C3294 334 3364 417 3438 417C3518 417 3560 330 3560 277L3560 136C3560 104 3542 76 3520 52C3507 38 3475 11 3428 11C3355 11 3294 100 3294 215ZM3736 400C3814 400 3814 397 3814 308L3814 158C3814 80 3814 -11 3966 -11C4022 -11 4066 17 4095 79L4095 -11L4239 0L4239 31C4169 31 4161 38 4161 87L4161 442L4014 431L4014 400C4084 400 4092 393 4092 344L4092 166C4092 79 4044 11 3971 11C3887 11 3883 58 3883 110L3883 442L3736 431ZM4334 616C4334 589 4356 563 4387 563C4415 563 4440 584 4440 616C4440 648 4415 669 4387 669C4356 669 4334 642 4334 616ZM4292 0C4324 1 4378 3 4402 3C4437 3 4472 1 4506 0L4506 31C4440 31 4436 36 4436 75L4436 442L4296 431L4296 400C4361 400 4370 394 4370 345L4370 76C4370 31 4359 31 4292 31ZM4570 215C4570 88 4668 -11 4782 -11C4846 -11 4891 23 4916 55L4916 -11L5063 0L5063 31C4993 31 4985 38 4985 87L4985 694L4841 683L4841 652C4911 652 4919 645 4919 596L4919 380C4890 416 4847 442 4793 442C4675 442 4570 344 4570 215ZM4653 214C4653 251 4655 311 4684 356C4705 387 4743 420 4797 420C4832 420 4874 405 4905 360C4916 343 4916 341 4916 323L4916 118C4916 100 4916 98 4905 81C4875 33 4830 11 4787 11C4742 11 4706 37 4682 75C4656 116 4653 173 4653 214Z" stroke="rgb(0,0,0)" stroke-opacity="1" stroke-width="8" fill="rgb(0,0,0)" fill-opacity="1"/></g></g></g></g></g></g></g></svg> </svg>