<svg xmlns="http://www.w3.org/2000/svg" xmlns:xlink="http://www.w3.org/1999/xlink" x="0" y="0" style="         width:701.6000366210938px;         height:193.1999969482422px;         background: transparent;         fill: none; " viewBox="20.3 15.15 149.24 150.67">                           <svg xmlns="http://www.w3.org/2000/svg" class="role-diagram-draw-area" style="overflow: visible;"><g class="shapes-region" style="stroke: black; fill: none;"><g class="composite-shape"><path class="real" d=" M20.8,16.28 L169.04,16.28 L169.04,164.64 L20.8,164.64 Z" style="stroke-width: 1; stroke: none; fill: none; fill-opacity: 1;"/><path class="real" d=" M28.8,16.28 L28.8,164.64 M72.8,16.28 L72.8,164.64 M116.8,16.28 L116.8,164.64 M160.8,16.28 L160.8,164.64" style="stroke-width: 1; stroke: rgb(0, 0, 0); fill: none; fill-opacity: 1;"/><path class="real" d=" M20.8,24.28 L169.04,24.28 M20.8,68.28 L169.04,68.28 M20.8,112.28 L169.04,112.28 M20.8,156.28 L169.04,156.28" style="stroke-width: 1; stroke: rgb(0, 0, 0); fill: none; fill-opacity: 1;"/><path class="real" d=" " style="stroke-width: 1; stroke: rgb(0, 0, 0); fill: none; fill-opacity: 1;"/></g><g class="composite-shape"><path class="real" d=" M158.75,156.28 C158.75,155.15 159.67,154.23 160.8,154.23 C161.93,154.23 162.85,155.15 162.85,156.28 C162.85,157.41 161.93,158.33 160.8,158.33 C159.67,158.33 158.75,157.41 158.75,156.28 Z" style="stroke-width: 1; stroke: rgb(0, 0, 0); fill: rgb(0, 0, 0); fill-opacity: 1;"/></g><g class="composite-shape"><path class="real" d=" M26.91,24.27 C26.91,23.13 27.83,22.22 28.96,22.22 C30.09,22.22 31.01,23.13 31.01,24.27 C31.01,25.4 30.09,26.32 28.96,26.32 C27.83,26.32 26.91,25.4 26.91,24.27 Z" style="stroke-width: 1; stroke: rgb(0, 0, 0); fill: rgb(0, 0, 0); fill-opacity: 1;"/></g><g class="composite-shape"><path class="real" d=" M70.91,24.27 C70.91,23.13 71.83,22.22 72.96,22.22 C74.09,22.22 75.01,23.13 75.01,24.27 C75.01,25.4 74.09,26.32 72.96,26.32 C71.83,26.32 70.91,25.4 70.91,24.27 Z" style="stroke-width: 1; stroke: rgb(0, 0, 0); fill: rgb(0, 0, 0); fill-opacity: 1;"/></g><g class="composite-shape"><path class="real" d=" M158.91,24.27 C158.91,23.13 159.83,22.22 160.96,22.22 C162.09,22.22 163.01,23.13 163.01,24.27 C163.01,25.4 162.09,26.32 160.96,26.32 C159.83,26.32 158.91,25.4 158.91,24.27 Z" style="stroke-width: 1; stroke: rgb(0, 0, 0); fill: rgb(0, 0, 0); fill-opacity: 1;"/></g><g class="composite-shape"><path class="real" d=" M114.91,24.27 C114.91,23.13 115.83,22.22 116.96,22.22 C118.09,22.22 119.01,23.13 119.01,24.27 C119.01,25.4 118.09,26.32 116.96,26.32 C115.83,26.32 114.91,25.4 114.91,24.27 Z" style="stroke-width: 1; stroke: rgb(0, 0, 0); fill: rgb(0, 0, 0); fill-opacity: 1;"/></g><g class="arrow-line"><path class="connection real" stroke-dasharray="" d="  M80.66,16.57 L67.38,29.85" style="stroke: rgb(255, 0, 0); stroke-opacity: 1; stroke-width: 1; fill: none; fill-opacity: 1;"/><g stroke="none" fill="rgb(255,0,0)" fill-opacity="1" transform="matrix(0.7071067811865474,-0.7071067811865477,0.7071067811865477,0.7071067811865474,65.25999821254186,31.966666012718548)" style="stroke: none; fill: rgb(255, 0, 0); stroke-width: 1;"><path d=" M5.36,-2.57 L0,0 L5.36,2.57 Z"/></g></g><g class="arrow-line"><path class="connection real" stroke-dasharray="" d="  M168.66,16.57 L155.38,29.85" style="stroke: rgb(255, 0, 0); stroke-opacity: 1; stroke-width: 1; fill: none; fill-opacity: 1;"/><g stroke="none" fill="rgb(255,0,0)" fill-opacity="1" transform="matrix(0.7071067811865474,-0.7071067811865477,0.7071067811865477,0.7071067811865474,153.25999821254186,31.966666012718548)" style="stroke: none; fill: rgb(255, 0, 0); stroke-width: 1;"><path d=" M5.36,-2.57 L0,0 L5.36,2.57 Z"/></g></g><g class="arrow-line"><path class="connection real" stroke-dasharray="" d="  M21.66,31.57 L34.14,19.09" style="stroke: rgb(255, 0, 0); stroke-opacity: 1; stroke-width: 1; fill: none; fill-opacity: 1;"/><g stroke="none" fill="rgb(255,0,0)" fill-opacity="1" transform="matrix(-0.7071067811865479,0.7071067811865471,-0.7071067811865471,-0.7071067811865479,36.26000475202283,16.96665947323754)" style="stroke: none; fill: rgb(255, 0, 0); stroke-width: 1;"><path d=" M5.36,-2.57 L0,0 L5.36,2.57 Z"/></g></g><g class="arrow-line"><path class="connection real" stroke-dasharray="" d="  M109.66,31.57 L122.14,19.09" style="stroke: rgb(255, 0, 0); stroke-opacity: 1; stroke-width: 1; fill: none; fill-opacity: 1;"/><g stroke="none" fill="rgb(255,0,0)" fill-opacity="1" transform="matrix(-0.7071067811865479,0.7071067811865471,-0.7071067811865471,-0.7071067811865479,124.26000475202285,16.96665947323754)" style="stroke: none; fill: rgb(255, 0, 0); stroke-width: 1;"><path d=" M5.36,-2.57 L0,0 L5.36,2.57 Z"/></g></g><g class="composite-shape"><path class="real" d=" M26.85,68.2 C26.85,67.07 27.77,66.15 28.9,66.15 C30.03,66.15 30.95,67.07 30.95,68.2 C30.95,69.33 30.03,70.25 28.9,70.25 C27.77,70.25 26.85,69.33 26.85,68.2 Z" style="stroke-width: 1; stroke: rgb(0, 0, 0); fill: rgb(0, 0, 0); fill-opacity: 1;"/></g><g class="composite-shape"><path class="real" d=" M70.85,68.2 C70.85,67.07 71.77,66.15 72.9,66.15 C74.03,66.15 74.95,67.07 74.95,68.2 C74.95,69.33 74.03,70.25 72.9,70.25 C71.77,70.25 70.85,69.33 70.85,68.2 Z" style="stroke-width: 1; stroke: rgb(0, 0, 0); fill: rgb(0, 0, 0); fill-opacity: 1;"/></g><g class="composite-shape"><path class="real" d=" M158.85,68.2 C158.85,67.07 159.77,66.15 160.9,66.15 C162.03,66.15 162.95,67.07 162.95,68.2 C162.95,69.33 162.03,70.25 160.9,70.25 C159.77,70.25 158.85,69.33 158.85,68.2 Z" style="stroke-width: 1; stroke: rgb(0, 0, 0); fill: rgb(0, 0, 0); fill-opacity: 1;"/></g><g class="composite-shape"><path class="real" d=" M114.85,68.2 C114.85,67.07 115.77,66.15 116.9,66.15 C118.03,66.15 118.95,67.07 118.95,68.2 C118.95,69.33 118.03,70.25 116.9,70.25 C115.77,70.25 114.85,69.33 114.85,68.2 Z" style="stroke-width: 1; stroke: rgb(0, 0, 0); fill: rgb(0, 0, 0); fill-opacity: 1;"/></g><g class="arrow-line"><path class="connection real" stroke-dasharray="" d="  M80.6,60.5 L67.32,73.78" style="stroke: rgb(255, 0, 0); stroke-opacity: 1; stroke-width: 1; fill: none; fill-opacity: 1;"/><g stroke="none" fill="rgb(255,0,0)" fill-opacity="1" transform="matrix(0.7071067811865474,-0.7071067811865477,0.7071067811865477,0.7071067811865474,65.20000232514883,75.89999934605189)" style="stroke: none; fill: rgb(255, 0, 0); stroke-width: 1;"><path d=" M5.36,-2.57 L0,0 L5.36,2.57 Z"/></g></g><g class="arrow-line"><path class="connection real" stroke-dasharray="" d="  M168.6,60.5 L155.32,73.78" style="stroke: rgb(255, 0, 0); stroke-opacity: 1; stroke-width: 1; fill: none; fill-opacity: 1;"/><g stroke="none" fill="rgb(255,0,0)" fill-opacity="1" transform="matrix(0.7071067811865474,-0.7071067811865477,0.7071067811865477,0.7071067811865474,153.20000232514883,75.89999934605189)" style="stroke: none; fill: rgb(255, 0, 0); stroke-width: 1;"><path d=" M5.36,-2.57 L0,0 L5.36,2.57 Z"/></g></g><g class="arrow-line"><path class="connection real" stroke-dasharray="" d="  M21.6,75.5 L34.08,63.02" style="stroke: rgb(255, 0, 0); stroke-opacity: 1; stroke-width: 1; fill: none; fill-opacity: 1;"/><g stroke="none" fill="rgb(255,0,0)" fill-opacity="1" transform="matrix(-0.7071067811865479,0.7071067811865471,-0.7071067811865471,-0.7071067811865479,36.20000886462981,60.899992806570864)" style="stroke: none; fill: rgb(255, 0, 0); stroke-width: 1;"><path d=" M5.36,-2.57 L0,0 L5.36,2.57 Z"/></g></g><g class="arrow-line"><path class="connection real" stroke-dasharray="" d="  M109.6,75.5 L122.08,63.02" style="stroke: rgb(255, 0, 0); stroke-opacity: 1; stroke-width: 1; fill: none; fill-opacity: 1;"/><g stroke="none" fill="rgb(255,0,0)" fill-opacity="1" transform="matrix(-0.7071067811865479,0.7071067811865471,-0.7071067811865471,-0.7071067811865479,124.20000886462981,60.899992806570864)" style="stroke: none; fill: rgb(255, 0, 0); stroke-width: 1;"><path d=" M5.36,-2.57 L0,0 L5.36,2.57 Z"/></g></g><g class="composite-shape"><path class="real" d=" M26.85,112.2 C26.85,111.07 27.77,110.15 28.9,110.15 C30.03,110.15 30.95,111.07 30.95,112.2 C30.95,113.33 30.03,114.25 28.9,114.25 C27.77,114.25 26.85,113.33 26.85,112.2 Z" style="stroke-width: 1; stroke: rgb(0, 0, 0); fill: rgb(0, 0, 0); fill-opacity: 1;"/></g><g class="composite-shape"><path class="real" d=" M70.85,112.2 C70.85,111.07 71.77,110.15 72.9,110.15 C74.03,110.15 74.95,111.07 74.95,112.2 C74.95,113.33 74.03,114.25 72.9,114.25 C71.77,114.25 70.85,113.33 70.85,112.2 Z" style="stroke-width: 1; stroke: rgb(0, 0, 0); fill: rgb(0, 0, 0); fill-opacity: 1;"/></g><g class="composite-shape"><path class="real" d=" M158.85,112.2 C158.85,111.07 159.77,110.15 160.9,110.15 C162.03,110.15 162.95,111.07 162.95,112.2 C162.95,113.33 162.03,114.25 160.9,114.25 C159.77,114.25 158.85,113.33 158.85,112.2 Z" style="stroke-width: 1; stroke: rgb(0, 0, 0); fill: rgb(0, 0, 0); fill-opacity: 1;"/></g><g class="composite-shape"><path class="real" d=" M114.85,112.2 C114.85,111.07 115.77,110.15 116.9,110.15 C118.03,110.15 118.95,111.07 118.95,112.2 C118.95,113.33 118.03,114.25 116.9,114.25 C115.77,114.25 114.85,113.33 114.85,112.2 Z" style="stroke-width: 1; stroke: rgb(0, 0, 0); fill: rgb(0, 0, 0); fill-opacity: 1;"/></g><g class="arrow-line"><path class="connection real" stroke-dasharray="" d="  M80.6,104.5 L67.32,117.78" style="stroke: rgb(255, 0, 0); stroke-opacity: 1; stroke-width: 1; fill: none; fill-opacity: 1;"/><g stroke="none" fill="rgb(255,0,0)" fill-opacity="1" transform="matrix(0.7071067811865474,-0.7071067811865477,0.7071067811865477,0.7071067811865474,65.20000232514872,119.89999934605186)" style="stroke: none; fill: rgb(255, 0, 0); stroke-width: 1;"><path d=" M5.36,-2.57 L0,0 L5.36,2.57 Z"/></g></g><g class="arrow-line"><path class="connection real" stroke-dasharray="" d="  M168.6,104.5 L155.32,117.78" style="stroke: rgb(255, 0, 0); stroke-opacity: 1; stroke-width: 1; fill: none; fill-opacity: 1;"/><g stroke="none" fill="rgb(255,0,0)" fill-opacity="1" transform="matrix(0.7071067811865474,-0.7071067811865477,0.7071067811865477,0.7071067811865474,153.20000232514872,119.89999934605186)" style="stroke: none; fill: rgb(255, 0, 0); stroke-width: 1;"><path d=" M5.36,-2.57 L0,0 L5.36,2.57 Z"/></g></g><g class="arrow-line"><path class="connection real" stroke-dasharray="" d="  M21.6,119.5 L34.08,107.02" style="stroke: rgb(255, 0, 0); stroke-opacity: 1; stroke-width: 1; fill: none; fill-opacity: 1;"/><g stroke="none" fill="rgb(255,0,0)" fill-opacity="1" transform="matrix(-0.7071067811865479,0.7071067811865471,-0.7071067811865471,-0.7071067811865479,36.200008864629694,104.89999280657085)" style="stroke: none; fill: rgb(255, 0, 0); stroke-width: 1;"><path d=" M5.36,-2.57 L0,0 L5.36,2.57 Z"/></g></g><g class="arrow-line"><path class="connection real" stroke-dasharray="" d="  M109.6,119.5 L122.08,107.02" style="stroke: rgb(255, 0, 0); stroke-opacity: 1; stroke-width: 1; fill: none; fill-opacity: 1;"/><g stroke="none" fill="rgb(255,0,0)" fill-opacity="1" transform="matrix(-0.7071067811865479,0.7071067811865471,-0.7071067811865471,-0.7071067811865479,124.2000088646297,104.89999280657085)" style="stroke: none; fill: rgb(255, 0, 0); stroke-width: 1;"><path d=" M5.36,-2.57 L0,0 L5.36,2.57 Z"/></g></g><g class="composite-shape"><path class="real" d=" M26.85,156.3 C26.85,155.17 27.77,154.25 28.9,154.25 C30.03,154.25 30.95,155.17 30.95,156.3 C30.95,157.43 30.03,158.35 28.9,158.35 C27.77,158.35 26.85,157.43 26.85,156.3 Z" style="stroke-width: 1; stroke: rgb(0, 0, 0); fill: rgb(0, 0, 0); fill-opacity: 1;"/></g><g class="composite-shape"><path class="real" d=" M70.85,156.3 C70.85,155.17 71.77,154.25 72.9,154.25 C74.03,154.25 74.95,155.17 74.95,156.3 C74.95,157.43 74.03,158.35 72.9,158.35 C71.77,158.35 70.85,157.43 70.85,156.3 Z" style="stroke-width: 1; stroke: rgb(0, 0, 0); fill: rgb(0, 0, 0); fill-opacity: 1;"/></g><g class="composite-shape"><path class="real" d=" M158.85,156.3 C158.85,155.17 159.77,154.25 160.9,154.25 C162.03,154.25 162.95,155.17 162.95,156.3 C162.95,157.43 162.03,158.35 160.9,158.35 C159.77,158.35 158.85,157.43 158.85,156.3 Z" style="stroke-width: 1; stroke: rgb(0, 0, 0); fill: rgb(0, 0, 0); fill-opacity: 1;"/></g><g class="composite-shape"><path class="real" d=" M114.85,156.3 C114.85,155.17 115.77,154.25 116.9,154.25 C118.03,154.25 118.95,155.17 118.95,156.3 C118.95,157.43 118.03,158.35 116.9,158.35 C115.77,158.35 114.85,157.43 114.85,156.3 Z" style="stroke-width: 1; stroke: rgb(0, 0, 0); fill: rgb(0, 0, 0); fill-opacity: 1;"/></g><g class="arrow-line"><path class="connection real" stroke-dasharray="" d="  M80.6,148.6 L67.32,161.88" style="stroke: rgb(255, 0, 0); stroke-opacity: 1; stroke-width: 1; fill: none; fill-opacity: 1;"/><g stroke="none" fill="rgb(255,0,0)" fill-opacity="1" transform="matrix(0.7071067811865474,-0.7071067811865477,0.7071067811865477,0.7071067811865474,65.20000232514883,163.99999970935642)" style="stroke: none; fill: rgb(255, 0, 0); stroke-width: 1;"><path d=" M5.36,-2.57 L0,0 L5.36,2.57 Z"/></g></g><g class="arrow-line"><path class="connection real" stroke-dasharray="" d="  M168.6,148.6 L155.32,161.88" style="stroke: rgb(255, 0, 0); stroke-opacity: 1; stroke-width: 1; fill: none; fill-opacity: 1;"/><g stroke="none" fill="rgb(255,0,0)" fill-opacity="1" transform="matrix(0.7071067811865474,-0.7071067811865477,0.7071067811865477,0.7071067811865474,153.20000232514883,163.99999970935642)" style="stroke: none; fill: rgb(255, 0, 0); stroke-width: 1;"><path d=" M5.36,-2.57 L0,0 L5.36,2.57 Z"/></g></g><g class="arrow-line"><path class="connection real" stroke-dasharray="" d="  M21.6,163.6 L34.08,151.12" style="stroke: rgb(255, 0, 0); stroke-opacity: 1; stroke-width: 1; fill: none; fill-opacity: 1;"/><g stroke="none" fill="rgb(255,0,0)" fill-opacity="1" transform="matrix(-0.7071067811865479,0.7071067811865471,-0.7071067811865471,-0.7071067811865479,36.20000886462981,148.99999316987538)" style="stroke: none; fill: rgb(255, 0, 0); stroke-width: 1;"><path d=" M5.36,-2.57 L0,0 L5.36,2.57 Z"/></g></g><g class="arrow-line"><path class="connection real" stroke-dasharray="" d="  M109.6,163.6 L122.08,151.12" style="stroke: rgb(255, 0, 0); stroke-opacity: 1; stroke-width: 1; fill: none; fill-opacity: 1;"/><g stroke="none" fill="rgb(255,0,0)" fill-opacity="1" transform="matrix(-0.7071067811865479,0.7071067811865471,-0.7071067811865471,-0.7071067811865479,124.20000886462981,148.99999316987538)" style="stroke: none; fill: rgb(255, 0, 0); stroke-width: 1;"><path d=" M5.36,-2.57 L0,0 L5.36,2.57 Z"/></g></g><g/></g><g/><g/><g/></svg>         <svg xmlns="http://www.w3.org/2000/svg" xmlns:xlink="http://www.w3.org/1999/xlink" width="700" height="191.60000610351562" style="width:700px;height:191.60000610351562px;font-family:LatinModern-Math, LatinModern, Asana-Math, Asana;background:transparent;"/> </svg>